<svg width="48" height="48" viewBox="0 0 24 24" fill="none" xmlns="http://www.w3.org/2000/svg"><rect width="24" height="24" fill="none" rx="0" ry="0"></rect><path fill-rule="evenodd" clip-rule="evenodd" d="M14.1987 3.99749L14.1987 5.6275C14.1987 5.9575 13.9287 6.2275 13.5987 6.2275C13.2687 6.2275 12.9987 5.9575 12.9987 5.6275L12.9987 3.99749C12.9987 3.44749 12.5487 2.99749 11.9987 2.99749C11.4487 2.99749 10.9987 3.44749 10.9987 3.99749L10.9987 10.2075C10.9987 10.5375 10.7287 10.8075 10.3987 10.8075C10.0687 10.8075 9.79873 10.5375 9.79873 10.2075L9.79873 3.99749C9.79873 2.78749 10.7887 1.7975 11.9987 1.7975C13.2087 1.7975 14.1987 2.78749 14.1987 3.99749Z" fill="#ffffff"></path><path fill-rule="evenodd" clip-rule="evenodd" d="M9.92214 16.5008L6.70884 13.2875C6.31884 12.8975 5.68884 12.8975 5.29884 13.2875C4.91884 13.6675 4.91884 14.3275 5.29884 14.7075L11.2988 20.7075C11.3388 20.7475 11.3888 20.7975 11.4588 20.8275C11.4688 20.8275 11.5488 20.8775 11.5588 20.8875L11.6588 20.9275C11.6638 20.9275 11.6963 20.9375 11.7288 20.9475C11.7613 20.9575 11.7938 20.9675 11.7988 20.9675C11.9288 21.0075 12.0688 21.0075 12.2188 20.9675C12.2238 20.9675 12.2538 20.9575 12.2838 20.9475C12.3138 20.9375 12.3438 20.9275 12.3488 20.9275L12.4488 20.8875L12.5588 20.8275C12.5922 20.8075 12.6255 20.7786 12.6588 20.7497C12.6755 20.7353 12.6922 20.7208 12.7088 20.7075L18.7088 14.7075C19.0988 14.3175 19.0988 13.6775 18.7088 13.2875C18.5188 13.0975 18.2688 12.9975 17.9988 12.9975C17.7288 12.9975 17.4788 13.0975 17.2888 13.2875L14.0288 16.5575C13.9007 16.6857 13.7325 16.7454 13.5686 16.7367C13.2525 16.7209 12.9987 16.4573 12.9987 16.1374V8.32743C12.9987 7.99743 13.2687 7.72743 13.5987 7.72743C13.9287 7.72743 14.1987 7.99743 14.1987 8.32743L14.1987 14.6876L16.4488 12.4375C16.8688 12.0175 17.4188 11.7975 18.0088 11.7975C18.5988 11.7975 19.1488 12.0275 19.5688 12.4375C20.3988 13.2675 20.3988 14.7175 19.5688 15.5475L13.5688 21.5475C13.4688 21.6475 13.3588 21.7375 13.2288 21.8275C13.2041 21.8461 13.1756 21.8608 13.1361 21.8811C13.1118 21.8937 13.0832 21.9084 13.0488 21.9275C12.9888 21.9675 12.9288 21.9975 12.8488 22.0275C12.7972 22.0496 12.7565 22.0609 12.6825 22.0813C12.6562 22.0886 12.6256 22.097 12.5888 22.1075C12.5759 22.114 12.5249 22.1289 12.4826 22.1413C12.4597 22.148 12.4394 22.154 12.4288 22.1575C12.1388 22.2175 11.8588 22.2175 11.5688 22.1575C11.5318 22.1513 11.4985 22.1413 11.4525 22.1275C11.4241 22.119 11.3909 22.109 11.3488 22.0975C11.2788 22.0775 11.2188 22.0575 11.1588 22.0275C11.0888 21.9975 11.0288 21.9675 10.9188 21.9075C10.8992 21.901 10.8537 21.8729 10.819 21.8515C10.8009 21.8403 10.7857 21.831 10.7788 21.8275C10.6588 21.7475 10.5488 21.6575 10.4488 21.5575L4.44884 15.5575C4.02884 15.1375 3.80884 14.5875 3.80884 14.0075C3.80884 13.4175 4.03884 12.8675 4.44884 12.4475C4.86884 12.0275 5.41884 11.8075 6.00884 11.8075C6.59884 11.8075 7.14884 12.0375 7.56884 12.4475L9.79876 14.6774V12.9074C9.79876 12.5774 10.0688 12.3074 10.3988 12.3074C10.7288 12.3074 10.9988 12.5774 10.9988 12.9074V16.0725C11.0145 16.2441 10.9579 16.4228 10.8288 16.5575C10.7534 16.6362 10.6619 16.688 10.5644 16.714C10.5117 16.7293 10.4562 16.7374 10.3988 16.7374C10.2051 16.7374 10.032 16.6444 9.92214 16.5008Z" fill="#7a04eb"></path></svg>