<?xml version="1.0" standalone="no"?>
<!DOCTYPE svg PUBLIC "-//W3C//DTD SVG 20010904//EN"
 "http://www.w3.org/TR/2001/REC-SVG-20010904/DTD/svg10.dtd">
<svg version="1.0" xmlns="http://www.w3.org/2000/svg"
 width="650.000000pt" height="650.000000pt" viewBox="0 0 650.000000 650.000000"
 preserveAspectRatio="xMidYMid meet">
<metadata>
Created by potrace 1.14, written by Peter Selinger 2001-2017
</metadata>
<g transform="translate(0.000000,650.000000) scale(0.100000,-0.100000)"
fill="#000000" stroke="none">
<path d="M203 5459 c-70 -27 -145 -96 -174 -161 l-24 -53 0 -1520 0 -1520 21
-46 c26 -55 86 -124 128 -147 73 -39 101 -42 489 -42 l377 0 0 -120 0 -120
119 0 119 0 0 -207 c-1 -115 2 -226 6 -247 18 -112 108 -210 221 -244 31 -9
598 -11 2410 -9 l2370 2 56 28 c72 35 131 98 158 171 l21 57 -3 1507 -2 1507
-24 52 c-30 68 -102 134 -174 162 -55 20 -74 21 -437 21 l-380 0 0 120 0 120
-118 0 -119 0 0 208 c0 114 -3 225 -7 247 -18 110 -108 209 -221 243 -30 9
-603 12 -2400 11 -2334 0 -2361 0 -2412 -20z"/>
</g>
</svg>
